<mxfile host="app.diagrams.net" modified="2024-01-26T11:24:19.512Z" agent="Mozilla/5.0 (Macintosh; Intel Mac OS X 10_15_7) AppleWebKit/537.36 (KHTML, like Gecko) Chrome/120.0.0.0 Safari/537.36" version="23.0.2" etag="pxjWph0_GFPQtG-JJ7G4" type="github">
  <diagram name="第 1 页" id="FTFBZR9A2kHQLUrr_osc">
    <mxGraphModel>
      <root>
        <mxCell id="0" />
        <mxCell id="1" parent="0" />
      </root>
    </mxGraphModel>
  </diagram>
</mxfile>
